<?xml version="1.0" encoding="UTF-8" standalone="no"?>
<!-- Created with Inkscape (http://www.inkscape.org/) -->

<svg
   xmlns:dc="http://purl.org/dc/elements/1.1/"
   xmlns:cc="http://creativecommons.org/ns#"
   xmlns:rdf="http://www.w3.org/1999/02/22-rdf-syntax-ns#"
   xmlns:svg="http://www.w3.org/2000/svg"
   xmlns="http://www.w3.org/2000/svg"
   xmlns:sodipodi="http://sodipodi.sourceforge.net/DTD/sodipodi-0.dtd"
   xmlns:inkscape="http://www.inkscape.org/namespaces/inkscape"
   width="512"
   height="512"
   viewBox="0 0 511.99999 511.99999"
   id="svg2"
   version="1.1"
   inkscape:version="0.91 r13725"
   sodipodi:docname="logo.svg"
   inkscape:export-filename="/home/mh/dev/go/src/github.com/lambdasoup/blockvote/logo.svg.png"
   inkscape:export-xdpi="90"
   inkscape:export-ydpi="90">
  <defs
     id="defs4">
    <linearGradient
       y2="63.996323"
       x2="0.0004394635"
       y1="-0.00059563987"
       x1="0.0004394635"
       id="coin-gradient"
       gradientTransform="scale(0.99994167,1.0000583)"
       gradientUnits="userSpaceOnUse">
      <stop
         id="stop12"
         style="stop-color:#f9aa4b"
         offset="0%" />
      <stop
         id="stop14"
         style="stop-color:#f7931a"
         offset="100%" />
    </linearGradient>
    <filter
       style="color-interpolation-filters:sRGB;"
       inkscape:label="Drop Shadow"
       id="filter3402">
      <feFlood
         flood-opacity="0.356863"
         flood-color="rgb(0,0,0)"
         result="flood"
         id="feFlood3404" />
      <feComposite
         in="flood"
         in2="SourceGraphic"
         operator="in"
         result="composite1"
         id="feComposite3406" />
      <feGaussianBlur
         in="composite1"
         stdDeviation="3"
         result="blur"
         id="feGaussianBlur3408" />
      <feOffset
         dx="4.57967e-15"
         dy="3"
         result="offset"
         id="feOffset3410" />
      <feComposite
         in="SourceGraphic"
         in2="offset"
         operator="over"
         result="composite2"
         id="feComposite3412" />
    </filter>
    <filter
       style="color-interpolation-filters:sRGB;"
       inkscape:label="Drop Shadow"
       id="filter3414">
      <feFlood
         flood-opacity="0.356863"
         flood-color="rgb(0,0,0)"
         result="flood"
         id="feFlood3416" />
      <feComposite
         in="flood"
         in2="SourceGraphic"
         operator="in"
         result="composite1"
         id="feComposite3418" />
      <feGaussianBlur
         in="composite1"
         stdDeviation="3"
         result="blur"
         id="feGaussianBlur3420" />
      <feOffset
         dx="4.57967e-15"
         dy="3"
         result="offset"
         id="feOffset3422" />
      <feComposite
         in="SourceGraphic"
         in2="offset"
         operator="over"
         result="composite2"
         id="feComposite3424" />
    </filter>
    <filter
       style="color-interpolation-filters:sRGB;"
       inkscape:label="Drop Shadow"
       id="filter3426">
      <feFlood
         flood-opacity="0.356863"
         flood-color="rgb(0,0,0)"
         result="flood"
         id="feFlood3428" />
      <feComposite
         in="flood"
         in2="SourceGraphic"
         operator="in"
         result="composite1"
         id="feComposite3430" />
      <feGaussianBlur
         in="composite1"
         stdDeviation="3"
         result="blur"
         id="feGaussianBlur3432" />
      <feOffset
         dx="4.57967e-15"
         dy="3"
         result="offset"
         id="feOffset3434" />
      <feComposite
         in="SourceGraphic"
         in2="offset"
         operator="over"
         result="composite2"
         id="feComposite3436" />
    </filter>
  </defs>
  <sodipodi:namedview
     id="base"
     pagecolor="#ffffff"
     bordercolor="#666666"
     borderopacity="1.0"
     inkscape:pageopacity="0.0"
     inkscape:pageshadow="2"
     inkscape:zoom="1.4"
     inkscape:cx="76.355154"
     inkscape:cy="219.61299"
     inkscape:document-units="px"
     inkscape:current-layer="layer1"
     showgrid="true"
     showguides="true"
     inkscape:guide-bbox="true"
     inkscape:window-width="2509"
     inkscape:window-height="1416"
     inkscape:window-x="51"
     inkscape:window-y="24"
     inkscape:window-maximized="1"
     units="px"
     showborder="true"
     guidetolerance="10000"
     objecttolerance="10000"
     inkscape:snap-bbox="false"
     inkscape:snap-page="false"
     inkscape:snap-to-guides="true"
     inkscape:snap-grids="true"
     inkscape:snap-global="true"
     inkscape:snap-others="false"
     inkscape:snap-nodes="true"
     inkscape:object-nodes="true">
    <inkscape:grid
       type="xygrid"
       id="grid4064"
       dotted="false"
       empspacing="16" />
    <sodipodi:guide
       position="256,383.99999"
       orientation="1,0"
       id="guide3351" />
    <sodipodi:guide
       position="128,319.99999"
       orientation="1,0"
       id="guide3353" />
    <sodipodi:guide
       position="383.99999,224"
       orientation="1,0"
       id="guide3355" />
  </sodipodi:namedview>
  <metadata
     id="metadata7">
    <rdf:RDF>
      <cc:Work
         rdf:about="">
        <dc:format>image/svg+xml</dc:format>
        <dc:type
           rdf:resource="http://purl.org/dc/dcmitype/StillImage" />
        <dc:title />
      </cc:Work>
    </rdf:RDF>
  </metadata>
  <g
     inkscape:label="Layer 1"
     inkscape:groupmode="layer"
     id="layer1"
     transform="translate(0,-540.36219)">
    <ellipse
       style="fill:none"
       id="path3336"
       cx="345.71429"
       cy="415.39792"
       rx="7.1428571"
       ry="2.6785715" />
    <ellipse
       style="fill:none"
       id="path3338"
       cx="394.64285"
       cy="438.61221"
       rx="32.142857"
       ry="45.892857" />
    <rect
       style="fill:#6699ff;stroke:none"
       id="rect3373"
       width="720"
       height="672"
       x="-96"
       y="476.36218" />
    <path
       style="fill:#99cc33;fill-rule:evenodd;stroke:none;stroke-width:1px;stroke-linecap:butt;stroke-linejoin:miter;stroke-opacity:1;filter:url(#filter3402)"
       d="m 0,1004.3622 128,0 0,-64.00001 128,0 10e-6,-96 127.99999,0 0,-160 128,0 0,464.00001 -512,0 z"
       id="path3354-3"
       inkscape:connector-curvature="0"
       sodipodi:nodetypes="ccccccccccc" />
    <g
       id="g16"
       transform="matrix(2.4298853,0,0,2.4298853,67.472641,638.34993)"
       style="filter:url(#filter3426)">
      <path
         style="fill:url(#coin-gradient)"
         d="M 63.0359,39.741 C 58.7619,56.884 41.3989,67.317 24.2539,63.042 7.1159,58.768 -3.3171,41.404 0.9589,24.262 5.2309,7.117 22.5939,-3.317 39.7339,0.957 c 17.144,4.274 27.576,21.64 23.302,38.784 z"
         id="coin"
         inkscape:connector-curvature="0" />
      <path
         sodipodi:nodetypes="ccccccccccccccccccccccccccccccccccccccc"
         inkscape:connector-curvature="0"
         style="fill:#ffffff"
         d="m 46.1009,27.441 c 0.637,-4.258 -2.605,-6.547 -7.038,-8.074 l 1.438,-5.768 -3.511,-0.875 -1.4,5.616 c -0.923,-0.23 -1.871,-0.447 -2.813,-0.662 l 1.41,-5.653 -3.509,-0.875 -1.439,5.766 c -0.764,-0.174 -1.514,-0.346 -2.242,-0.527 l 0.004,-0.018 -4.842,-1.209 -0.934,3.75 c 0,0 2.605,0.597 2.55,0.634 1.422,0.355 1.679,1.296 1.636,2.042 -3.94,15.801 0,0 -3.94,15.801 -0.174,0.432 -0.615,1.08 -1.609,0.834 0.035,0.051 -2.552,-0.637 -2.552,-0.637 l -1.743,4.019 4.569,1.139 c 0.85,0.213 1.683,0.436 2.503,0.646 l -1.453,5.834 3.507,0.875 1.439,-5.772 c 0.958,0.26 1.888,0.5 2.798,0.726 l -1.434,5.745 3.511,0.875 1.453,-5.823 c 5.987,1.133 10.489,0.676 12.384,-4.739 1.527,-4.36 -0.076,-6.875 -3.226,-8.515 2.294,-0.529 4.022,-2.038 4.483,-5.155 z m -8.022,11.249 c -1.085,4.36 -8.426,2.003 -10.806,1.412 l 1.928,-7.729 c 2.38,0.594 10.012,1.77 8.878,6.317 z m 1.086,-11.312 c -0.99,3.966 -7.1,1.951 -9.082,1.457 l 1.748,-7.01 c 1.982,0.494 8.365,1.416 7.334,5.553 z"
         id="symbol" />
    </g>
  </g>
</svg>
